<svg xmlns="http://www.w3.org/2000/svg" width="20" height="22" viewBox="0 0 20 22"><defs><style>.a{fill:#646464;}.b{fill:#fafafa;}</style></defs><g transform="translate(0 -10.626)"><g transform="translate(0 10.626)"><path class="a" d="M11.51,10.733a.377.377,0,0,0-.353-.1L.323,13.506A.47.47,0,0,0,0,13.977V30.235a.463.463,0,0,0,.353.472L11.186,32.62a.428.428,0,0,0,.475-.4.548.548,0,0,0,0-.072V11.108A.507.507,0,0,0,11.51,10.733Z" transform="translate(0 -10.626)"/><path class="a" d="M286.083,70.612H277.75a.455.455,0,0,1,0-.907h7.917V54.284H277.75a.455.455,0,0,1,0-.907h8.333a.436.436,0,0,1,.417.454V70.158A.436.436,0,0,1,286.083,70.612Z" transform="translate(-266.5 -50.992)"/></g><g transform="translate(3.326 16.258)"><path class="b" d="M89.74,170.486a.41.41,0,0,1-.353-.28l-4.167-9.521a.765.765,0,0,1,.114-.826c.191-.183.45-.11.578.163l.014.033,4.167,9.521a.757.757,0,0,1-.134.82A.331.331,0,0,1,89.74,170.486Z" transform="translate(-85.149 -159.758)"/><path class="b" d="M85.771,170.465c-.23,0-.416-.268-.416-.6a.793.793,0,0,1,.063-.314l4.167-9.521c.115-.284.37-.381.569-.216a.749.749,0,0,1,.152.813l-.014.033-4.167,9.521A.411.411,0,0,1,85.771,170.465Z" transform="translate(-85.347 -159.737)"/></g><g transform="translate(10.833 13.011)"><path class="a" d="M363.084,70.611a.436.436,0,0,1-.417-.454V53.83a.418.418,0,1,1,.833,0V70.157A.436.436,0,0,1,363.084,70.611Z" transform="translate(-359.334 -53.376)"/><path class="a" d="M286.083,374.566H277.75c-.23,0-.417-.266-.417-.6s.187-.6.417-.6h8.333c.23,0,.417.266.417.6S286.313,374.566,286.083,374.566Z" transform="translate(-277.333 -360.005)"/><path class="a" d="M286.083,310.566H277.75c-.23,0-.417-.266-.417-.6s.187-.6.417-.6h8.333c.23,0,.417.266.417.6S286.313,310.566,286.083,310.566Z" transform="translate(-277.333 -298.679)"/><path class="a" d="M286.083,246.566H277.75c-.23,0-.417-.266-.417-.6s.187-.6.417-.6h8.333c.23,0,.417.266.417.6S286.313,246.566,286.083,246.566Z" transform="translate(-277.333 -237.354)"/><path class="a" d="M286.083,182.566H277.75c-.23,0-.417-.266-.417-.6s.187-.6.417-.6h8.333c.23,0,.417.266.417.6S286.313,182.566,286.083,182.566Z" transform="translate(-277.333 -176.028)"/><path class="a" d="M286.083,118.566H277.75c-.23,0-.417-.266-.417-.6s.187-.6.417-.6h8.333c.23,0,.417.266.417.6S286.313,118.566,286.083,118.566Z" transform="translate(-277.333 -114.702)"/></g></g></svg>