<svg id="Group_7133" data-name="Group 7133" xmlns="http://www.w3.org/2000/svg" width="28.463" height="38.315" viewBox="0 0 28.463 38.315">
  <g id="Group_7112" data-name="Group 7112" transform="translate(0 0)">
    <g id="Group_7111" data-name="Group 7111">
      <path id="Path_21526" data-name="Path 21526" d="M83.845,2.554H75.8V.639A.629.629,0,0,0,75.182,0h-9.9a.629.629,0,0,0-.619.638h0V2.554H56.619A.629.629,0,0,0,56,3.193h0V37.676a.629.629,0,0,0,.618.639H83.844a.629.629,0,0,0,.619-.638h0V3.193A.629.629,0,0,0,83.845,2.554ZM65.9,1.277h8.663V5.109H65.9Zm17.325,35.76H57.238V3.831h7.425V5.747a.629.629,0,0,0,.618.639h9.9a.629.629,0,0,0,.619-.638h0V3.831h7.425Z" transform="translate(-56 0)" fill="#b1b1b1"/>
    </g>
  </g>
  <g id="Group_7114" data-name="Group 7114" transform="translate(2.233 30.51)">
    <g id="Group_7113" data-name="Group 7113" transform="translate(0 0)">
      <rect id="Rectangle_3987" data-name="Rectangle 3987" width="14" height="1.032" fill="#b1b1b1"/>
    </g>
  </g>
  <g id="Group_7116" data-name="Group 7116" transform="translate(17.233 30.51)">
    <g id="Group_7115" data-name="Group 7115" transform="translate(0 0)">
      <rect id="Rectangle_3988" data-name="Rectangle 3988" width="9" height="1.032" fill="#b1b1b1"/>
    </g>
  </g>
  <g id="Group_7118" data-name="Group 7118" transform="translate(2.233 32.574)">
    <g id="Group_7117" data-name="Group 7117" transform="translate(0 0)">
      <rect id="Rectangle_3989" data-name="Rectangle 3989" width="24" height="1.032" transform="translate(0 0)" fill="#b1b1b1"/>
    </g>
  </g>
  <g id="Group_7120" data-name="Group 7120" transform="translate(2.233 34.638)">
    <g id="Group_7119" data-name="Group 7119" transform="translate(0 0)">
      <rect id="Rectangle_3990" data-name="Rectangle 3990" width="10" height="1.032" transform="translate(0 0)" fill="#b1b1b1"/>
    </g>
  </g>
  <g id="Group_7122" data-name="Group 7122" transform="translate(13.233 34.638)">
    <g id="Group_7121" data-name="Group 7121" transform="translate(0 0)">
      <rect id="Rectangle_3991" data-name="Rectangle 3991" width="13" height="1.032" transform="translate(0 0)" fill="#b1b1b1"/>
    </g>
  </g>
  <g id="Group_7124" data-name="Group 7124" transform="translate(2.475 18.519)">
    <g id="Group_7123" data-name="Group 7123">
      <path id="Path_21527" data-name="Path 21527" d="M92.332,232H88.619a.629.629,0,0,0-.619.638h0v8.3a.629.629,0,0,0,.618.639h3.713a.629.629,0,0,0,.619-.638h0v-8.3A.629.629,0,0,0,92.332,232Zm-.619,8.3H89.238v-7.024h2.475Z" transform="translate(-88 -232)" fill="#b1b1b1"/>
    </g>
  </g>
  <g id="Group_7126" data-name="Group 7126" transform="translate(8.663 15.964)">
    <g id="Group_7125" data-name="Group 7125" transform="translate(0)">
      <path id="Path_21528" data-name="Path 21528" d="M172.332,200h-3.713a.629.629,0,0,0-.619.638h0v10.856a.629.629,0,0,0,.618.639h3.713a.629.629,0,0,0,.619-.638h0V200.639A.629.629,0,0,0,172.332,200Zm-.619,10.856h-2.475v-9.579h2.475Z" transform="translate(-168 -200)" fill="#b1b1b1"/>
    </g>
  </g>
  <g id="Group_7128" data-name="Group 7128" transform="translate(14.85 13.41)">
    <g id="Group_7127" data-name="Group 7127" transform="translate(0)">
      <path id="Path_21529" data-name="Path 21529" d="M252.332,168h-3.713a.629.629,0,0,0-.619.638h0v13.41a.629.629,0,0,0,.618.639h3.713a.629.629,0,0,0,.619-.638h0v-13.41A.629.629,0,0,0,252.332,168Zm-.619,13.41h-2.475V169.277h2.475Z" transform="translate(-248 -168)" fill="#b1b1b1"/>
    </g>
  </g>
  <g id="Group_7130" data-name="Group 7130" transform="translate(21.038 10.856)">
    <g id="Group_7129" data-name="Group 7129">
      <path id="Path_21530" data-name="Path 21530" d="M332.332,136h-3.713a.629.629,0,0,0-.619.638h0V152.6a.629.629,0,0,0,.618.639h3.713a.629.629,0,0,0,.619-.638h0V136.639A.629.629,0,0,0,332.332,136Zm-.619,15.964h-2.475V137.277h2.475Z" transform="translate(-328 -136)" fill="#b1b1b1"/>
    </g>
  </g>
  <g id="Group_7132" data-name="Group 7132" transform="translate(2.766 6.398)">
    <g id="Group_7131" data-name="Group 7131" transform="translate(0)">
      <path id="Path_21531" data-name="Path 21531" d="M114.244,80.156l-6.188,1.277a.609.609,0,0,0-.222.095l-5.413,3.724H97.04a.6.6,0,0,0-.328.1l-4.95,3.193.656,1.083,4.8-3.1h5.392a.606.606,0,0,0,.343-.107l5.467-3.762,6.068-1.252Z" transform="translate(-91.762 -80.156)" fill="#b1b1b1"/>
    </g>
  </g>
</svg>
