<svg xmlns="http://www.w3.org/2000/svg" width="87.115" height="87.115" viewBox="0 0 87.115 87.115"><defs><style>.a{fill:red;}</style></defs><path class="a" d="M43.558,0A43.558,43.558,0,1,0,87.115,43.558,43.533,43.533,0,0,0,43.558,0Zm0,80.309A36.752,36.752,0,1,1,80.309,43.558,36.731,36.731,0,0,1,43.558,80.309Z"/><g transform="translate(40.155 21.928)"><path class="a" d="M239.4,128.877a3.4,3.4,0,0,0-3.4,3.4v21.914a3.4,3.4,0,1,0,6.806,0V132.28A3.4,3.4,0,0,0,239.4,128.877Z" transform="translate(-236 -128.877)"/></g><g transform="translate(38.964 54.815)"><circle class="a" cx="4.594" cy="4.594" r="4.594"/></g></svg>